<svg width="173" height="173" viewBox="0 0 173 173" fill="none" xmlns="http://www.w3.org/2000/svg">
<path d="M80.9161 24.7801H40.973C39.568 24.7801 38.4288 23.6422 38.4288 22.236C38.4288 20.8298 39.568 19.6919 40.973 19.6919H80.9161C82.3211 19.6919 83.4602 20.8298 83.4602 22.236C83.4602 23.6422 82.3211 24.7801 80.9161 24.7801Z" fill="black"/>
<path d="M157.697 167.912H15.2262C9.61498 167.912 5.04973 163.348 5.04973 157.735V29.8684C5.04973 24.2559 9.61498 19.6919 15.2262 19.6919H30.1853C31.5903 19.6919 32.7294 20.8298 32.7294 22.236C32.7294 23.6422 31.5903 24.7801 30.1853 24.7801H15.2262C12.42 24.7801 10.138 27.0634 10.138 29.8684V157.735C10.138 160.54 12.42 162.823 15.2262 162.823H157.697C160.503 162.823 162.785 160.54 162.785 157.735L162.862 29.8659C162.862 27.0634 160.58 24.7801 157.774 24.7801H142.738C141.333 24.7801 140.194 23.6422 140.194 22.236C140.194 20.8298 141.333 19.6919 142.738 19.6919H157.774C163.385 19.6919 167.95 24.2559 167.95 29.8684L167.873 157.738C167.873 163.348 163.308 167.912 157.697 167.912Z" fill="black"/>
<path d="M131.951 24.7801H92.0094C90.6044 24.7801 89.4652 23.6422 89.4652 22.236C89.4652 20.8298 90.6044 19.6919 92.0094 19.6919H131.951C133.356 19.6919 134.495 20.8298 134.495 22.236C134.495 23.6422 133.356 24.7801 131.951 24.7801Z" fill="black"/>
<path d="M157.774 149.949H15.3032C9.69201 149.949 5.12675 145.385 5.12675 139.772V50.3481C5.12675 48.9419 6.26589 47.804 7.67087 47.804H165.406C166.811 47.804 167.95 48.9419 167.95 50.3481V139.772C167.95 145.385 163.385 149.949 157.774 149.949ZM10.215 52.8922V139.772C10.215 142.577 12.497 144.861 15.3032 144.861H157.774C160.58 144.861 162.862 142.577 162.862 139.772V52.8922H10.215Z" fill="black"/>
<path d="M35.5791 37.7791C31.2027 37.7791 27.6412 34.2312 27.6412 29.8684V13.0261C27.6412 8.64841 31.2027 5.08813 35.5791 5.08813C37.6636 5.08813 39.65 5.90553 41.1717 7.38877C42.6997 8.95649 43.5171 10.9416 43.5171 13.0261V29.8684C43.5171 34.2312 39.9556 37.7791 35.5791 37.7791ZM35.5791 10.1764C34.0077 10.1764 32.7294 11.4559 32.7294 13.0261V29.8684C32.7294 31.4237 34.0077 32.6908 35.5791 32.6908C37.1506 32.6908 38.4288 31.4237 38.4288 29.8684V13.0261C38.4288 12.0646 37.9642 11.3863 37.5742 10.9863C37.2189 10.641 36.5406 10.1764 35.5791 10.1764Z" fill="black"/>
<path d="M137.344 37.7791C132.967 37.7791 129.406 34.2312 129.406 29.8684V13.0261C129.406 8.64841 132.967 5.08813 137.344 5.08813C139.428 5.08813 141.415 5.90553 142.936 7.38877C144.464 8.95649 145.282 10.9416 145.282 13.0261V29.8684C145.282 34.2312 141.72 37.7791 137.344 37.7791ZM137.344 10.1764C135.772 10.1764 134.494 11.4559 134.494 13.0261V29.8684C134.494 31.4237 135.772 32.6908 137.344 32.6908C138.915 32.6908 140.194 31.4237 140.194 29.8684V13.0261C140.194 12.0646 139.729 11.3863 139.339 10.9863C138.984 10.641 138.305 10.1764 137.344 10.1764Z" fill="black"/>
<path d="M86.6143 37.7791H86.31C81.9335 37.7791 78.372 34.2312 78.372 29.8684V13.0261C78.372 8.64841 81.9335 5.08813 86.31 5.08813H86.6143C90.9907 5.08813 94.5522 8.64841 94.5522 13.0261V29.8684C94.5522 34.2312 90.9907 37.7791 86.6143 37.7791ZM86.31 10.1764C84.7385 10.1764 83.4602 11.4559 83.4602 13.0261V29.8684C83.4602 31.4237 84.7385 32.6908 86.31 32.6908H86.6143C88.1857 32.6908 89.464 31.4237 89.464 29.8684V13.0261C89.464 11.4559 88.1857 10.1764 86.6143 10.1764H86.31Z" fill="black"/>
<path d="M62.757 128.57C61.352 128.57 60.2129 127.432 60.2129 126.026V83.3619L56.2166 87.3594C55.2228 88.3532 53.6128 88.3532 52.619 87.3594C51.6252 86.3656 51.6252 84.7557 52.619 83.7619L60.9582 75.4215C61.6837 74.6935 62.7756 74.4699 63.7309 74.8699C64.6812 75.2624 65.3011 76.1916 65.3011 77.2202V126.026C65.3011 127.432 64.162 128.57 62.757 128.57Z" fill="black"/>
<path d="M71.2179 128.57H54.4165C53.0116 128.57 51.8724 127.432 51.8724 126.026C51.8724 124.619 53.0116 123.481 54.4165 123.481H71.2179C72.6229 123.481 73.762 124.619 73.762 126.026C73.762 127.432 72.6229 128.57 71.2179 128.57Z" fill="black"/>
<path d="M110.577 128.57C109.172 128.57 108.033 127.432 108.033 126.026V116.88H83.6379C82.6813 116.88 81.8056 116.344 81.3708 115.491C80.9372 114.639 81.0167 113.616 81.5795 112.843L108.519 75.7247C109.167 74.8353 110.318 74.4626 111.362 74.8005C112.411 75.1409 113.121 76.1173 113.121 77.2204V111.792H118.583C119.988 111.792 121.128 112.93 121.128 114.336C121.128 115.742 119.988 116.88 118.583 116.88H113.121V126.026C113.121 127.432 111.982 128.57 110.577 128.57ZM88.628 111.792H108.033V85.0565L88.628 111.792Z" fill="black"/>
</svg>
