<svg width="303" height="65" viewBox="0 0 303 65" fill="none" xmlns="http://www.w3.org/2000/svg">
<g filter="url(#filter0_d_7_73)">
<rect x="4" width="295" height="57" rx="15" fill="#50C878"/>
<path d="M35.1448 24.896C35.1448 26.062 34.8698 27.162 34.3198 28.196C33.7698 29.23 32.8898 30.077 31.6798 30.737C30.4698 31.375 28.9188 31.694 27.0268 31.694H22.8688V41H19.1068V18.065H27.0268C28.7868 18.065 30.2718 18.373 31.4818 18.989C32.7138 19.583 33.6268 20.397 34.2208 21.431C34.8368 22.465 35.1448 23.62 35.1448 24.896ZM27.0268 28.625C28.4568 28.625 29.5238 28.306 30.2278 27.668C30.9318 27.008 31.2838 26.084 31.2838 24.896C31.2838 22.388 29.8648 21.134 27.0268 21.134H22.8688V28.625H27.0268ZM55.3978 31.463C55.3978 32.145 55.3538 32.761 55.2658 33.311H41.3728C41.4828 34.763 42.0218 35.929 42.9898 36.809C43.9578 37.689 45.1458 38.129 46.5538 38.129C48.5778 38.129 50.0078 37.282 50.8438 35.588H54.9028C54.3528 37.26 53.3518 38.635 51.8998 39.713C50.4698 40.769 48.6878 41.297 46.5538 41.297C44.8158 41.297 43.2538 40.912 41.8678 40.142C40.5038 39.35 39.4258 38.25 38.6338 36.842C37.8638 35.412 37.4788 33.762 37.4788 31.892C37.4788 30.022 37.8528 28.383 38.6008 26.975C39.3708 25.545 40.4378 24.445 41.8018 23.675C43.1878 22.905 44.7718 22.52 46.5538 22.52C48.2698 22.52 49.7988 22.894 51.1408 23.642C52.4828 24.39 53.5278 25.446 54.2758 26.81C55.0238 28.152 55.3978 29.703 55.3978 31.463ZM51.4708 30.275C51.4488 28.889 50.9538 27.778 49.9858 26.942C49.0178 26.106 47.8188 25.688 46.3888 25.688C45.0908 25.688 43.9798 26.106 43.0558 26.942C42.1318 27.756 41.5818 28.867 41.4058 30.275H51.4708ZM65.7 41.297C64.27 41.297 62.983 41.044 61.839 40.538C60.717 40.01 59.826 39.306 59.166 38.426C58.506 37.524 58.154 36.523 58.11 35.423H62.004C62.07 36.193 62.433 36.842 63.093 37.37C63.775 37.876 64.622 38.129 65.634 38.129C66.69 38.129 67.504 37.931 68.076 37.535C68.67 37.117 68.967 36.589 68.967 35.951C68.967 35.269 68.637 34.763 67.977 34.433C67.339 34.103 66.316 33.74 64.908 33.344C63.544 32.97 62.433 32.607 61.575 32.255C60.717 31.903 59.969 31.364 59.331 30.638C58.715 29.912 58.407 28.955 58.407 27.767C58.407 26.799 58.693 25.919 59.265 25.127C59.837 24.313 60.651 23.675 61.707 23.213C62.785 22.751 64.017 22.52 65.403 22.52C67.471 22.52 69.132 23.048 70.386 24.104C71.662 25.138 72.344 26.557 72.432 28.361H68.67C68.604 27.547 68.274 26.898 67.68 26.414C67.086 25.93 66.283 25.688 65.271 25.688C64.281 25.688 63.522 25.875 62.994 26.249C62.466 26.623 62.202 27.118 62.202 27.734C62.202 28.218 62.378 28.625 62.73 28.955C63.082 29.285 63.511 29.549 64.017 29.747C64.523 29.923 65.271 30.154 66.261 30.44C67.581 30.792 68.659 31.155 69.495 31.529C70.353 31.881 71.09 32.409 71.706 33.113C72.322 33.817 72.641 34.752 72.663 35.918C72.663 36.952 72.377 37.876 71.805 38.69C71.233 39.504 70.419 40.142 69.363 40.604C68.329 41.066 67.108 41.297 65.7 41.297ZM75.4739 31.826C75.4739 30 75.8479 28.383 76.5959 26.975C77.3659 25.567 78.3999 24.478 79.6979 23.708C81.0179 22.916 82.4699 22.52 84.0539 22.52C85.4839 22.52 86.7269 22.806 87.7829 23.378C88.8609 23.928 89.7189 24.621 90.3569 25.457V22.817H94.1519V41H90.3569V38.294C89.7189 39.152 88.8499 39.867 87.7499 40.439C86.6499 41.011 85.3959 41.297 83.9879 41.297C82.4259 41.297 80.9959 40.901 79.6979 40.109C78.3999 39.295 77.3659 38.173 76.5959 36.743C75.8479 35.291 75.4739 33.652 75.4739 31.826ZM90.3569 31.892C90.3569 30.638 90.0929 29.549 89.5649 28.625C89.0589 27.701 88.3879 26.997 87.5519 26.513C86.7159 26.029 85.8139 25.787 84.8459 25.787C83.8779 25.787 82.9759 26.029 82.1399 26.513C81.3039 26.975 80.6219 27.668 80.0939 28.592C79.5879 29.494 79.3349 30.572 79.3349 31.826C79.3349 33.08 79.5879 34.18 80.0939 35.126C80.6219 36.072 81.3039 36.798 82.1399 37.304C82.9979 37.788 83.8999 38.03 84.8459 38.03C85.8139 38.03 86.7159 37.788 87.5519 37.304C88.3879 36.82 89.0589 36.116 89.5649 35.192C90.0929 34.246 90.3569 33.146 90.3569 31.892ZM108.267 22.52C109.697 22.52 110.973 22.817 112.095 23.411C113.239 24.005 114.13 24.885 114.768 26.051C115.406 27.217 115.725 28.625 115.725 30.275V41H111.996V30.836C111.996 29.208 111.589 27.965 110.775 27.107C109.961 26.227 108.85 25.787 107.442 25.787C106.034 25.787 104.912 26.227 104.076 27.107C103.262 27.965 102.855 29.208 102.855 30.836V41H99.0932V22.817H102.855V24.896C103.471 24.148 104.252 23.565 105.198 23.147C106.166 22.729 107.189 22.52 108.267 22.52ZM136.653 41.231C135.113 41.231 133.727 40.967 132.495 40.439C131.263 39.889 130.295 39.119 129.591 38.129C128.887 37.139 128.535 35.984 128.535 34.664H132.561C132.649 35.654 133.034 36.468 133.716 37.106C134.42 37.744 135.399 38.063 136.653 38.063C137.951 38.063 138.963 37.755 139.689 37.139C140.415 36.501 140.778 35.687 140.778 34.697C140.778 33.927 140.547 33.3 140.085 32.816C139.645 32.332 139.084 31.958 138.402 31.694C137.742 31.43 136.818 31.144 135.63 30.836C134.134 30.44 132.913 30.044 131.967 29.648C131.043 29.23 130.251 28.592 129.591 27.734C128.931 26.876 128.601 25.732 128.601 24.302C128.601 22.982 128.931 21.827 129.591 20.837C130.251 19.847 131.175 19.088 132.363 18.56C133.551 18.032 134.926 17.768 136.488 17.768C138.71 17.768 140.525 18.329 141.933 19.451C143.363 20.551 144.155 22.069 144.309 24.005H140.151C140.085 23.169 139.689 22.454 138.963 21.86C138.237 21.266 137.28 20.969 136.092 20.969C135.014 20.969 134.134 21.244 133.452 21.794C132.77 22.344 132.429 23.136 132.429 24.17C132.429 24.874 132.638 25.457 133.056 25.919C133.496 26.359 134.046 26.711 134.706 26.975C135.366 27.239 136.268 27.525 137.412 27.833C138.93 28.251 140.162 28.669 141.108 29.087C142.076 29.505 142.89 30.154 143.55 31.034C144.232 31.892 144.573 33.047 144.573 34.499C144.573 35.665 144.254 36.765 143.616 37.799C143 38.833 142.087 39.669 140.877 40.307C139.689 40.923 138.281 41.231 136.653 41.231ZM165.677 31.463C165.677 32.145 165.633 32.761 165.545 33.311H151.652C151.762 34.763 152.301 35.929 153.269 36.809C154.237 37.689 155.425 38.129 156.833 38.129C158.857 38.129 160.287 37.282 161.123 35.588H165.182C164.632 37.26 163.631 38.635 162.179 39.713C160.749 40.769 158.967 41.297 156.833 41.297C155.095 41.297 153.533 40.912 152.147 40.142C150.783 39.35 149.705 38.25 148.913 36.842C148.143 35.412 147.758 33.762 147.758 31.892C147.758 30.022 148.132 28.383 148.88 26.975C149.65 25.545 150.717 24.445 152.081 23.675C153.467 22.905 155.051 22.52 156.833 22.52C158.549 22.52 160.078 22.894 161.42 23.642C162.762 24.39 163.807 25.446 164.555 26.81C165.303 28.152 165.677 29.703 165.677 31.463ZM161.75 30.275C161.728 28.889 161.233 27.778 160.265 26.942C159.297 26.106 158.098 25.688 156.668 25.688C155.37 25.688 154.259 26.106 153.335 26.942C152.411 27.756 151.861 28.867 151.685 30.275H161.75ZM176.573 31.925L184.955 41H179.873L173.141 33.179V41H169.379V16.58H173.141V30.77L179.741 22.817H184.955L176.573 31.925ZM186.398 31.826C186.398 30 186.772 28.383 187.52 26.975C188.29 25.567 189.324 24.478 190.622 23.708C191.942 22.916 193.394 22.52 194.978 22.52C196.408 22.52 197.651 22.806 198.707 23.378C199.785 23.928 200.643 24.621 201.281 25.457V22.817H205.076V41H201.281V38.294C200.643 39.152 199.774 39.867 198.674 40.439C197.574 41.011 196.32 41.297 194.912 41.297C193.35 41.297 191.92 40.901 190.622 40.109C189.324 39.295 188.29 38.173 187.52 36.743C186.772 35.291 186.398 33.652 186.398 31.826ZM201.281 31.892C201.281 30.638 201.017 29.549 200.489 28.625C199.983 27.701 199.312 26.997 198.476 26.513C197.64 26.029 196.738 25.787 195.77 25.787C194.802 25.787 193.9 26.029 193.064 26.513C192.228 26.975 191.546 27.668 191.018 28.592C190.512 29.494 190.259 30.572 190.259 31.826C190.259 33.08 190.512 34.18 191.018 35.126C191.546 36.072 192.228 36.798 193.064 37.304C193.922 37.788 194.824 38.03 195.77 38.03C196.738 38.03 197.64 37.788 198.476 37.304C199.312 36.82 199.983 36.116 200.489 35.192C201.017 34.246 201.281 33.146 201.281 31.892ZM213.779 25.457C214.329 24.533 215.055 23.818 215.957 23.312C216.881 22.784 217.97 22.52 219.224 22.52V26.414H218.267C216.793 26.414 215.671 26.788 214.901 27.536C214.153 28.284 213.779 29.582 213.779 31.43V41H210.017V22.817H213.779V25.457ZM221.428 31.826C221.428 30 221.802 28.383 222.55 26.975C223.32 25.567 224.354 24.478 225.652 23.708C226.972 22.916 228.424 22.52 230.008 22.52C231.438 22.52 232.681 22.806 233.737 23.378C234.815 23.928 235.673 24.621 236.311 25.457V22.817H240.106V41H236.311V38.294C235.673 39.152 234.804 39.867 233.704 40.439C232.604 41.011 231.35 41.297 229.942 41.297C228.38 41.297 226.95 40.901 225.652 40.109C224.354 39.295 223.32 38.173 222.55 36.743C221.802 35.291 221.428 33.652 221.428 31.826ZM236.311 31.892C236.311 30.638 236.047 29.549 235.519 28.625C235.013 27.701 234.342 26.997 233.506 26.513C232.67 26.029 231.768 25.787 230.8 25.787C229.832 25.787 228.93 26.029 228.094 26.513C227.258 26.975 226.576 27.668 226.048 28.592C225.542 29.494 225.289 30.572 225.289 31.826C225.289 33.08 225.542 34.18 226.048 35.126C226.576 36.072 227.258 36.798 228.094 37.304C228.952 37.788 229.854 38.03 230.8 38.03C231.768 38.03 232.67 37.788 233.506 37.304C234.342 36.82 235.013 36.116 235.519 35.192C236.047 34.246 236.311 33.146 236.311 31.892ZM254.221 22.52C255.651 22.52 256.927 22.817 258.049 23.411C259.193 24.005 260.084 24.885 260.722 26.051C261.36 27.217 261.679 28.625 261.679 30.275V41H257.95V30.836C257.95 29.208 257.543 27.965 256.729 27.107C255.915 26.227 254.804 25.787 253.396 25.787C251.988 25.787 250.866 26.227 250.03 27.107C249.216 27.965 248.809 29.208 248.809 30.836V41H245.047V22.817H248.809V24.896C249.425 24.148 250.206 23.565 251.152 23.147C252.12 22.729 253.143 22.52 254.221 22.52ZM273.804 22.52C275.212 22.52 276.455 22.806 277.533 23.378C278.633 23.928 279.491 24.621 280.107 25.457V22.817H283.902V41.297C283.902 42.969 283.55 44.454 282.846 45.752C282.142 47.072 281.119 48.106 279.777 48.854C278.457 49.602 276.873 49.976 275.025 49.976C272.561 49.976 270.515 49.393 268.887 48.227C267.259 47.083 266.335 45.521 266.115 43.541H269.844C270.13 44.487 270.735 45.246 271.659 45.818C272.605 46.412 273.727 46.709 275.025 46.709C276.543 46.709 277.764 46.247 278.688 45.323C279.634 44.399 280.107 43.057 280.107 41.297V38.261C279.469 39.119 278.6 39.845 277.5 40.439C276.422 41.011 275.19 41.297 273.804 41.297C272.22 41.297 270.768 40.901 269.448 40.109C268.15 39.295 267.116 38.173 266.346 36.743C265.598 35.291 265.224 33.652 265.224 31.826C265.224 30 265.598 28.383 266.346 26.975C267.116 25.567 268.15 24.478 269.448 23.708C270.768 22.916 272.22 22.52 273.804 22.52ZM280.107 31.892C280.107 30.638 279.843 29.549 279.315 28.625C278.809 27.701 278.138 26.997 277.302 26.513C276.466 26.029 275.564 25.787 274.596 25.787C273.628 25.787 272.726 26.029 271.89 26.513C271.054 26.975 270.372 27.668 269.844 28.592C269.338 29.494 269.085 30.572 269.085 31.826C269.085 33.08 269.338 34.18 269.844 35.126C270.372 36.072 271.054 36.798 271.89 37.304C272.748 37.788 273.65 38.03 274.596 38.03C275.564 38.03 276.466 37.788 277.302 37.304C278.138 36.82 278.809 36.116 279.315 35.192C279.843 34.246 280.107 33.146 280.107 31.892Z" fill="white"/>
</g>
<defs>
<filter id="filter0_d_7_73" x="0" y="0" width="303" height="65" filterUnits="userSpaceOnUse" color-interpolation-filters="sRGB">
<feFlood flood-opacity="0" result="BackgroundImageFix"/>
<feColorMatrix in="SourceAlpha" type="matrix" values="0 0 0 0 0 0 0 0 0 0 0 0 0 0 0 0 0 0 127 0" result="hardAlpha"/>
<feOffset dy="4"/>
<feGaussianBlur stdDeviation="2"/>
<feComposite in2="hardAlpha" operator="out"/>
<feColorMatrix type="matrix" values="0 0 0 0 0 0 0 0 0 0 0 0 0 0 0 0 0 0 0.25 0"/>
<feBlend mode="normal" in2="BackgroundImageFix" result="effect1_dropShadow_7_73"/>
<feBlend mode="normal" in="SourceGraphic" in2="effect1_dropShadow_7_73" result="shape"/>
</filter>
</defs>
</svg>
