<?xml version="1.0" encoding="iso-8859-1"?>
<!-- Generator: Adobe Illustrator 19.0.0, SVG Export Plug-In . SVG Version: 6.00 Build 0)  -->
<svg version="1.1" id="Capa_1" xmlns="http://www.w3.org/2000/svg" xmlns:xlink="http://www.w3.org/1999/xlink" x="0px" y="0px"
	 viewBox="0 0 512.001 512.001" style="enable-background:new 0 0 512.001 512.001;" xml:space="preserve">
<g>
	<g>
		<g>
			<path d="M503.388,210.691c0.005-0.252,0.054-0.495,0.054-0.748c0-55.2-127.487-84.984-247.442-84.984
				S8.559,154.742,8.559,209.942c0,0.095,0.02,0.186,0.02,0.281c-0.09,47.528,17.439,93.403,49.201,128.761
				c8.169,8.873,17.189,16.924,26.931,24.036l-41.76,80.047c-3.12,6.016-3.72,13.026-1.668,19.485
				c2.052,6.459,6.589,11.837,12.609,14.948c3.624,1.895,7.652,2.885,11.742,2.883c9.546,0.011,18.304-5.293,22.717-13.758
				l41.158-78.788c32.23,12.524,66.315,19.61,100.867,20.97v77.593c0,14.138,11.461,25.6,25.6,25.6c14.138,0,25.6-11.461,25.6-25.6
				v-77.595c33.084-1.358,65.751-7.897,96.808-19.38c1.299-0.492,2.561-1.13,3.854-1.649l41.383,79.233
				c4.409,8.434,13.128,13.732,22.646,13.758c4.131-0.039,8.194-1.052,11.858-2.958c12.442-6.613,17.258-21.998,10.808-34.525
				l-41.892-80.162C475.271,327.334,503.613,270.748,503.388,210.691z M256,142.025c135.7,0,230.283,35.757,230.371,67.872
				c-0.001,0.155-0.075,0.289-0.067,0.445l0.009,0.274c-1.307,31.95-95.497,67.243-230.314,67.243
				c-135.763,0-230.375-35.792-230.375-67.917S120.238,142.025,256,142.025z M73.217,458.734c-2.146,4.144-7.235,5.779-11.392,3.658
				c-2.041-1.021-3.583-2.824-4.276-4.999c-0.693-2.175-0.477-4.537,0.597-6.551l40.842-78.284c4.81,2.919,9.791,5.667,14.943,8.244
				L73.217,458.734z M264.509,486.401c0,4.713-3.82,8.533-8.533,8.533c-4.713,0-8.533-3.82-8.533-8.533V375.467
				c0-4.713,3.82-8.533,8.533-8.533c4.713,0,8.533,3.82,8.533,8.533V486.401z M453.804,451.176
				c2.188,4.127,0.631,9.247-3.483,11.458c-1.995,1.141-4.374,1.404-6.571,0.729c-2.197-0.676-4.016-2.231-5.025-4.296
				l-40.891-78.289c4.229-2.108,8.448-4.253,12.541-6.636c0.338-0.199,0.661-0.422,0.967-0.667c0.482-0.285,0.922-0.59,1.398-0.877
				L453.804,451.176z M401.763,359.309c-0.317,0.189-0.622,0.398-0.912,0.625c-9.154,5.272-18.713,9.805-28.587,13.558
				c-29.102,10.74-59.696,16.89-90.688,18.229v-16.254c0-14.138-11.462-25.6-25.6-25.6c-14.138,0-25.6,11.461-25.6,25.6v16.108
				c-70.624-4.135-124.493-25.498-159.842-63.933c-20.83-23.091-35.029-51.384-41.094-81.885
				c40.973,32.142,135.897,49.168,226.56,49.168c90.657,0,185.574-17.023,226.552-49.161
				C473.231,293.482,443.788,334.862,401.763,359.309z"/>
			<path d="M66.013,230.152c2.958,0.786,6.111-0.073,8.262-2.251l42.667-42.667c1.601-1.6,2.5-3.77,2.5-6.033
				s-0.899-4.433-2.5-6.033c-1.6-1.601-3.77-2.5-6.033-2.5c-2.263,0-4.434,0.899-6.033,2.5l-42.667,42.667
				c-2.178,2.151-3.037,5.304-2.251,8.262C60.744,227.055,63.054,229.365,66.013,230.152z"/>
			<path d="M94.091,241.163c0.786,2.958,3.097,5.269,6.055,6.055s6.111-0.073,8.262-2.251l68.267-68.267
				c1.601-1.6,2.5-3.77,2.5-6.033s-0.899-4.433-2.5-6.033c-1.6-1.601-3.77-2.5-6.033-2.5c-2.263,0-4.433,0.899-6.033,2.5
				l-68.267,68.267C94.164,235.052,93.305,238.205,94.091,241.163z"/>
			<path d="M136.757,249.696c0.786,2.958,3.097,5.269,6.055,6.055c2.958,0.786,6.111-0.073,8.262-2.251l85.333-85.333
				c1.601-1.6,2.5-3.77,2.5-6.033s-0.899-4.433-2.5-6.033c-1.6-1.601-3.77-2.5-6.033-2.5c-2.263,0-4.433,0.899-6.033,2.5
				l-85.333,85.333C136.83,243.585,135.971,246.738,136.757,249.696z"/>
			<path d="M179.424,258.23c0.786,2.958,3.097,5.269,6.055,6.055s6.111-0.073,8.262-2.251l93.867-93.867
				c1.601-1.6,2.5-3.77,2.5-6.033s-0.899-4.433-2.5-6.033c-1.6-1.601-3.77-2.5-6.033-2.5s-4.433,0.899-6.033,2.5l-93.867,93.867
				C179.497,252.118,178.638,255.271,179.424,258.23z"/>
			<path d="M230.624,258.23c0.786,2.958,3.097,5.269,6.055,6.055s6.111-0.073,8.262-2.251l85.333-85.333
				c1.601-1.6,2.5-3.77,2.5-6.033s-0.899-4.433-2.5-6.033c-1.6-1.601-3.77-2.5-6.033-2.5s-4.433,0.899-6.033,2.5l-85.333,85.333
				C230.697,252.118,229.838,255.271,230.624,258.23z"/>
			<path d="M281.824,258.23c0.786,2.958,3.097,5.269,6.055,6.055s6.111-0.073,8.262-2.251l76.8-76.8c1.601-1.6,2.5-3.77,2.5-6.033
				s-0.899-4.433-2.5-6.033c-1.6-1.601-3.77-2.5-6.033-2.5s-4.434,0.899-6.033,2.5l-76.8,76.8
				C281.897,252.118,281.038,255.271,281.824,258.23z"/>
			<path d="M341.557,249.696c0.786,2.958,3.097,5.269,6.055,6.055c2.958,0.786,6.111-0.073,8.262-2.251l68.267-68.267
				c1.601-1.6,2.5-3.77,2.5-6.033s-0.899-4.433-2.5-6.033c-1.6-1.601-3.77-2.5-6.033-2.5c-2.263,0-4.433,0.899-6.033,2.5
				l-68.267,68.267C341.63,243.585,340.771,246.738,341.557,249.696z"/>
			<path d="M401.272,241.172c0.785,2.965,3.1,5.28,6.065,6.065c2.965,0.785,6.122-0.082,8.271-2.27l34.133-34.133
				c2.188-2.149,3.055-5.307,2.27-8.271c-0.785-2.965-3.1-5.28-6.065-6.065c-2.965-0.785-6.122,0.082-8.271,2.27l-34.133,34.133
				C401.354,235.05,400.488,238.207,401.272,241.172z"/>
			<path d="M195.637,71.159c5.249,6.271,5.251,15.402,0.004,21.675l-3.425,4.092c-1.956,2.337-2.517,5.54-1.471,8.403
				c1.046,2.863,3.54,4.95,6.542,5.475c3.002,0.525,6.056-0.591,8.012-2.928l3.429-4.092c10.502-12.537,10.565-30.782,0.15-43.392
				l-0.167-0.208c-5.254-6.27-5.254-15.405,0-21.675l20.488-24.5c1.956-2.339,2.516-5.543,1.469-8.406
				c-1.047-2.863-3.542-4.95-6.546-5.475s-6.058,0.593-8.014,2.931l-20.487,24.5c-10.507,12.539-10.568,30.791-0.146,43.4
				L195.637,71.159z"/>
			<path d="M246.837,71.159c5.249,6.271,5.251,15.402,0.004,21.675l-3.425,4.092c-1.956,2.337-2.517,5.54-1.471,8.403
				c1.046,2.863,3.54,4.95,6.542,5.475c3.002,0.525,6.056-0.591,8.012-2.928l3.429-4.092c10.502-12.537,10.565-30.782,0.15-43.392
				l-0.167-0.208c-5.254-6.27-5.254-15.405,0-21.675l20.488-24.5c3.024-3.615,2.544-8.997-1.071-12.021
				c-3.615-3.024-8.997-2.544-12.021,1.071l-20.487,24.5c-10.507,12.539-10.568,30.791-0.146,43.4L246.837,71.159z"/>
			<path d="M298.037,71.159c5.249,6.271,5.251,15.402,0.004,21.675l-3.425,4.092c-3.024,3.613-2.546,8.993,1.067,12.017
				c3.613,3.024,8.993,2.546,12.017-1.067l3.429-4.092c10.502-12.537,10.565-30.782,0.15-43.392l-0.167-0.208
				c-5.254-6.27-5.254-15.405,0-21.675l20.488-24.5c3.024-3.615,2.544-8.997-1.071-12.021c-3.615-3.024-8.997-2.544-12.021,1.071
				l-20.487,24.5c-10.507,12.539-10.568,30.791-0.146,43.4L298.037,71.159z"/>
		</g>
	</g>
</g>
<g>
</g>
<g>
</g>
<g>
</g>
<g>
</g>
<g>
</g>
<g>
</g>
<g>
</g>
<g>
</g>
<g>
</g>
<g>
</g>
<g>
</g>
<g>
</g>
<g>
</g>
<g>
</g>
<g>
</g>
</svg>
