<svg width="189" height="140" viewBox="0 0 189 140" fill="none" xmlns="http://www.w3.org/2000/svg">
<path d="M187.515 59.269L164.099 25.797C162.519 23.5399 160.032 22.2473 157.273 22.2473H116.602C112.014 22.2473 108.28 25.9686 108.28 30.54V72.3277H102.629V2.66892C102.629 1.19339 101.431 0 99.9502 0H2.6783C1.19758 0 0 1.19339 0 2.66892V88.5547V112.388V120.833C0 125.367 3.69988 129.057 8.24916 129.057H37.3776C41.3606 135.612 48.5805 140 56.8143 140C65.0482 140 72.2719 135.612 76.2511 129.057H124.805C128.788 135.612 136.008 140 144.242 140C152.475 140 159.699 135.612 163.678 129.057H180.751C185.3 129.057 189 125.371 189 120.833V112.388V64.0083C189.011 62.2544 188.522 60.7064 187.515 59.269ZM183.655 91.3532H174.736C174.526 91.3532 174.338 91.1702 174.338 90.9567V84.7496C174.338 84.5399 174.522 84.3531 174.736 84.3531H183.655V91.3532ZM159.707 28.8472L181.202 59.5741H125.516V27.5814H157.273C158.299 27.5814 159.118 28.0084 159.707 28.8472ZM113.636 30.5362C113.636 28.9082 114.968 27.5814 116.602 27.5814H120.16V62.243C120.16 63.7185 121.357 64.9119 122.838 64.9119H183.655V79.019H174.736C171.564 79.019 168.981 81.5888 168.981 84.7534V90.9605C168.981 94.1213 171.564 96.6949 174.736 96.6949H183.655V109.719H165.618C162.462 100.999 154.079 94.7466 144.253 94.7466C134.428 94.7466 126.041 100.999 122.888 109.719H113.636V74.9928V30.5362ZM108.28 77.6617V109.719H78.1833C75.0268 100.999 66.6437 94.7466 56.8182 94.7466C46.9926 94.7466 38.6057 100.999 35.453 109.719H5.3566V91.2236H99.9502C101.431 91.2236 102.629 90.0302 102.629 88.5547V77.6617H108.28ZM5.3566 25.328H33.3372V37.8071C33.3372 38.7908 33.8766 39.6906 34.7452 40.1558C35.6137 40.6209 36.6659 40.5752 37.4885 40.0338L51.3124 30.9518L65.1362 40.0338C65.5839 40.3274 66.0966 40.476 66.6093 40.476C67.0454 40.476 67.4816 40.3693 67.8795 40.1558C68.7481 39.6906 69.2876 38.787 69.2876 37.8071V25.328H97.2681V85.882H5.3566V25.328ZM38.6937 5.33784H63.9348V32.8544L52.7892 25.5339C51.8939 24.9468 50.7346 24.9468 49.8393 25.5339L38.6937 32.8544V5.33784ZM97.2719 19.9902H69.2914V5.33784H97.2719V19.9902ZM33.3372 5.33784V19.9902H5.3566V5.33784H33.3372ZM8.24916 123.716C6.65366 123.716 5.3566 122.423 5.3566 120.83V115.053H34.2286C34.1521 115.816 34.11 116.586 34.11 117.368C34.11 119.571 34.4353 121.699 35.0245 123.712H8.24916V123.716ZM56.8182 134.658C47.2528 134.658 39.4666 126.903 39.4666 117.368C39.4666 107.832 47.249 100.077 56.8182 100.077C66.3873 100.077 74.1697 107.832 74.1697 117.368C74.1697 126.903 66.3835 134.658 56.8182 134.658ZM78.608 123.716C79.2011 121.703 79.5225 119.575 79.5225 117.371C79.5225 116.59 79.4842 115.816 79.4039 115.057H110.958H121.664C121.587 115.82 121.545 116.59 121.545 117.371C121.545 119.575 121.87 121.703 122.459 123.716H78.608ZM144.249 134.658C134.684 134.658 126.898 126.903 126.898 117.368C126.898 107.832 134.68 100.077 144.249 100.077C153.818 100.077 161.601 107.832 161.601 117.368C161.601 126.903 153.818 134.658 144.249 134.658ZM180.762 123.716H166.043C166.636 121.703 166.957 119.575 166.957 117.371C166.957 116.59 166.919 115.816 166.839 115.057H183.655V120.833C183.655 122.423 182.358 123.716 180.762 123.716ZM120.16 74.9928C120.16 73.5173 121.357 72.3239 122.838 72.3239H134.114C135.595 72.3239 136.792 73.5173 136.792 74.9928C136.792 76.4683 135.595 77.6617 134.114 77.6617H122.838C121.357 77.6617 120.16 76.4683 120.16 74.9928ZM56.8182 105.906C50.4744 105.906 45.313 111.05 45.313 117.371C45.313 123.693 50.4744 128.836 56.8182 128.836C63.1619 128.836 68.3234 123.693 68.3234 117.371C68.3234 111.05 63.1619 105.906 56.8182 105.906ZM56.8182 121.813C54.358 121.813 52.3607 119.819 52.3607 117.371C52.3607 114.92 54.3618 112.926 56.8182 112.926C59.2746 112.926 61.2756 114.92 61.2756 117.371C61.2756 119.823 59.2784 121.813 56.8182 121.813ZM144.249 105.906C137.906 105.906 132.744 111.05 132.744 117.371C132.744 123.693 137.906 128.836 144.249 128.836C150.593 128.836 155.754 123.693 155.754 117.371C155.754 111.05 150.593 105.906 144.249 105.906ZM144.249 121.813C141.789 121.813 139.792 119.819 139.792 117.371C139.792 114.92 141.793 112.926 144.249 112.926C146.706 112.926 148.707 114.92 148.707 117.371C148.711 119.823 146.709 121.813 144.249 121.813ZM20.5693 54.6823V57.7478H27.3607C28.8414 57.7478 30.039 58.9411 30.039 60.4167C30.039 61.8922 28.8414 63.0856 27.3607 63.0856H20.5693V68.82C20.5693 70.2955 19.3717 71.4889 17.891 71.4889C16.4103 71.4889 15.2127 70.2955 15.2127 68.82V52.0096C15.2127 50.5341 16.4103 49.3407 17.891 49.3407H27.3607C28.8414 49.3407 30.039 50.5341 30.039 52.0096C30.039 53.4851 28.8414 54.6785 27.3607 54.6785H20.5693V54.6823ZM87.4158 68.8238C87.4158 70.2993 86.2182 71.4927 84.7375 71.4927H74.8852C73.4045 71.4927 72.2069 70.2993 72.2069 68.8238V52.0134C72.2069 50.5379 73.4045 49.3445 74.8852 49.3445H84.3549C85.8356 49.3445 87.0332 50.5379 87.0332 52.0134C87.0332 53.4889 85.8356 54.6823 84.3549 54.6823H77.5635V57.7478H84.3549C85.8356 57.7478 87.0332 58.9411 87.0332 60.4167C87.0332 61.8922 85.8356 63.0856 84.3549 63.0856H77.5635V66.151H84.7375C86.2144 66.1548 87.4158 67.3482 87.4158 68.8238ZM45.3895 61.8045C47.3982 60.5959 48.7297 58.4989 48.7297 56.1159C48.7297 52.3794 45.4545 49.3407 41.4256 49.3407H36.7998C35.3191 49.3407 34.1215 50.5341 34.1215 52.0096V60.2184V60.226V60.2337V68.82C34.1215 70.2955 35.3191 71.4889 36.7998 71.4889C38.2805 71.4889 39.4781 70.2955 39.4781 68.82V62.8873H39.8569L43.9356 70.1239C44.4253 70.997 45.3359 71.4851 46.2733 71.4851C46.7172 71.4851 47.1686 71.3745 47.5819 71.1419C48.8713 70.4213 49.3304 68.7933 48.6073 67.5084L45.3895 61.8045ZM41.4256 57.5533H39.4781V54.6823H41.4256C42.4625 54.6823 43.3731 55.3534 43.3731 56.1197C43.3731 56.8861 42.4625 57.5533 41.4256 57.5533ZM68.2048 68.8238C68.2048 70.2993 67.0072 71.4927 65.5265 71.4927H55.6741C54.1934 71.4927 52.9959 70.2993 52.9959 68.8238V52.0134C52.9959 50.5379 54.1934 49.3445 55.6741 49.3445H65.1438C66.6246 49.3445 67.8221 50.5379 67.8221 52.0134C67.8221 53.4889 66.6246 54.6823 65.1438 54.6823H58.3524V57.7478H65.1438C66.6246 57.7478 67.8221 58.9411 67.8221 60.4167C67.8221 61.8922 66.6246 63.0856 65.1438 63.0856H58.3524V66.151H65.5265C67.0072 66.1548 68.2048 67.3482 68.2048 68.8238Z" fill="black"/>
</svg>
