<svg width="177" height="143" viewBox="0 0 177 143" fill="none" xmlns="http://www.w3.org/2000/svg">
<path d="M3.0173 5.73146H30.7765L63.9668 99.4408C64.2685 100.587 65.4754 101.447 66.6824 101.447H162.029C163.839 101.447 165.046 100.301 165.046 98.5811C165.046 96.8617 163.839 95.7154 162.029 95.7154H69.0962L35.9059 2.00601C35.6042 0.859718 34.3972 0 33.1903 0H3.0173C1.20692 0 0 1.14629 0 2.86573C0 4.58517 1.20692 5.73146 3.0173 5.73146Z" fill="black"/>
<path d="M173.797 20.3467H66.0789C64.2686 20.3467 63.0616 21.493 63.0616 23.2124V24.0721L79.3551 76.515C79.6568 77.6613 80.8637 78.521 82.3724 78.521H156.296C157.503 78.521 158.71 77.6613 159.314 76.515L176.814 24.0721C177.417 22.6393 176.512 20.9198 174.702 20.3467C174.4 20.3467 174.098 20.3467 173.797 20.3467ZM154.184 72.7895H84.7862L70.3032 26.0781H169.572L154.184 72.7895Z" fill="black"/>
<path d="M94.4416 126.952C94.4416 118.068 86.8983 110.904 77.5447 110.904C68.1911 110.904 60.6478 118.068 60.6478 126.952C60.6478 135.836 68.1911 143 77.5447 143C86.8983 143 94.4416 135.836 94.4416 126.952ZM66.3807 126.952C66.3807 121.22 71.2084 116.635 77.243 116.635C83.2776 116.635 88.1053 121.22 88.1053 126.952C88.1053 132.683 83.2776 137.269 77.243 137.269C71.2084 137.269 66.3807 132.683 66.3807 126.952Z" fill="black"/>
<path d="M157.805 126.952C157.805 118.068 150.262 110.904 140.908 110.904C131.554 110.904 124.011 118.068 124.011 126.952C124.011 135.836 131.554 143 140.908 143C150.262 143 157.805 135.836 157.805 126.952ZM129.744 126.952C129.744 121.22 134.572 116.635 140.606 116.635C146.641 116.635 151.469 121.22 151.469 126.952C151.469 132.683 146.641 137.269 140.606 137.269C134.572 137.269 129.744 132.683 129.744 126.952Z" fill="black"/>
</svg>
