<svg width="41" height="41" viewBox="0 0 41 41" fill="none" xmlns="http://www.w3.org/2000/svg">
<path d="M0.500938 2.91968C0.342121 2.76087 0.216141 2.57232 0.13019 2.36482C0.0442386 2.15731 1.67341e-09 1.93491 0 1.71031C-1.67341e-09 1.48571 0.0442386 1.26331 0.13019 1.0558C0.216141 0.848299 0.342121 0.659755 0.500938 0.500938C0.659755 0.342121 0.848299 0.216141 1.0558 0.13019C1.26331 0.0442386 1.48571 -1.67341e-09 1.71031 0C1.93491 1.67341e-09 2.15731 0.0442386 2.36482 0.13019C2.57232 0.216141 2.76087 0.342121 2.91968 0.500938L20.5 18.0847L38.0803 0.500938C38.2391 0.342121 38.4277 0.216141 38.6352 0.13019C38.8427 0.0442386 39.0651 0 39.2897 0C39.5143 0 39.7367 0.0442386 39.9442 0.13019C40.1517 0.216141 40.3402 0.342121 40.4991 0.500938C40.6579 0.659755 40.7839 0.848299 40.8698 1.0558C40.9558 1.26331 41 1.48571 41 1.71031C41 1.93491 40.9558 2.15731 40.8698 2.36482C40.7839 2.57232 40.6579 2.76087 40.4991 2.91968L22.9153 20.5L40.4991 38.0803C40.6579 38.2391 40.7839 38.4277 40.8698 38.6352C40.9558 38.8427 41 39.0651 41 39.2897C41 39.5143 40.9558 39.7367 40.8698 39.9442C40.7839 40.1517 40.6579 40.3402 40.4991 40.4991C40.3402 40.6579 40.1517 40.7839 39.9442 40.8698C39.7367 40.9558 39.5143 41 39.2897 41C39.0651 41 38.8427 40.9558 38.6352 40.8698C38.4277 40.7839 38.2391 40.6579 38.0803 40.4991L20.5 22.9153L2.91968 40.4991C2.76087 40.6579 2.57232 40.7839 2.36482 40.8698C2.15731 40.9558 1.93491 41 1.71031 41C1.48571 41 1.26331 40.9558 1.0558 40.8698C0.848299 40.7839 0.659755 40.6579 0.500938 40.4991C0.342121 40.3402 0.216141 40.1517 0.13019 39.9442C0.0442386 39.7367 0 39.5143 0 39.2897C0 39.0651 0.0442386 38.8427 0.13019 38.6352C0.216141 38.4277 0.342121 38.2391 0.500938 38.0803L18.0847 20.5L0.500938 2.91968Z" fill="black"/>
</svg>
